<?xml version="1.0" encoding="UTF-8" standalone="no"?><!-- Generator: Gravit.io --><svg xmlns="http://www.w3.org/2000/svg" xmlns:xlink="http://www.w3.org/1999/xlink" style="isolation:isolate" viewBox="1806.654 32.865 77.346 67.271" width="77.346pt" height="67.271pt"><g><path d=" M 1834.697 81.446 C 1832.638 81.446 1830.96 79.774 1830.96 77.709 L 1830.945 59.017 L 1823.471 59.031 L 1823.486 77.717 C 1823.498 83.902 1828.511 88.912 1834.697 88.921 L 1870.184 88.921 L 1870.184 81.446 L 1834.697 81.446 Z " fill="rgb(148,188,139)"/><path d=" M 1875.805 40.339 L 1864.528 65.396 C 1864.229 66.068 1863.556 66.498 1862.828 66.498 L 1835.003 66.498 C 1834.2 66.501 1833.486 65.984 1833.238 65.22 L 1824.149 37.973 C 1823.134 34.921 1820.278 32.862 1817.062 32.865 L 1810.413 32.865 L 1810.413 40.339 L 1817.062 40.339 L 1827.419 71.418 C 1827.928 72.945 1829.358 73.974 1830.967 73.972 L 1866.447 73.972 C 1867.918 73.972 1869.252 73.109 1869.855 71.767 L 1884 40.339 L 1875.805 40.339 Z " fill="rgb(148,188,139)"/><path d=" M 1814.128 36.602 C 1814.128 38.666 1812.455 40.339 1810.391 40.339 C 1808.327 40.339 1806.654 38.666 1806.654 36.602 C 1806.654 34.538 1808.327 32.865 1810.391 32.865 C 1812.455 32.865 1814.128 34.538 1814.128 36.602 Z " fill="rgb(0,105,92)"/><path d=" M 1864.578 88.921 C 1867.675 88.922 1870.185 91.433 1870.184 94.53 C 1870.183 97.627 1867.672 100.136 1864.575 100.135 C 1861.478 100.134 1858.968 97.623 1858.969 94.526 C 1858.97 91.429 1861.482 88.919 1864.578 88.921 Z  M 1836.551 88.921 C 1839.647 88.922 1842.157 91.433 1842.156 94.53 C 1842.155 97.627 1839.644 100.136 1836.547 100.135 C 1833.45 100.134 1830.94 97.623 1830.941 94.526 C 1830.942 91.429 1833.454 88.919 1836.551 88.921 Z " fill="rgb(55,71,79)"/><path d=" M 1864.578 92.658 C 1865.606 92.658 1866.447 93.498 1866.447 94.526 C 1866.447 95.554 1865.606 96.395 1864.578 96.395 C 1863.551 96.395 1862.71 95.554 1862.71 94.526 C 1862.71 93.498 1863.551 92.658 1864.578 92.658 Z  M 1836.551 92.658 C 1837.578 92.658 1838.419 93.498 1838.419 94.526 C 1838.419 95.554 1837.578 96.395 1836.551 96.395 C 1835.523 96.395 1834.682 95.554 1834.682 94.526 C 1834.682 93.498 1835.523 92.658 1836.551 92.658 Z " fill="rgb(96,125,139)"/></g></svg>